<mxfile host="app.diagrams.net" agent="Mozilla/5.0 (Macintosh; Intel Mac OS X 10_15_7) AppleWebKit/537.36 (KHTML, like Gecko) Chrome/128.0.0.0 Safari/537.36" version="24.7.14">
  <diagram name="Page-1" id="hZyFnnQ-NEO26R5vmmBj">
    <mxGraphModel dx="1404" dy="1012" grid="1" gridSize="10" guides="1" tooltips="1" connect="1" arrows="1" fold="1" page="0" pageScale="1" pageWidth="850" pageHeight="1100" math="0" shadow="0">
      <root>
        <mxCell id="0" />
        <mxCell id="1" parent="0" />
        <mxCell id="ZVUKp8MK0bkCZlVXY3z7-12" style="edgeStyle=orthogonalEdgeStyle;rounded=0;orthogonalLoop=1;jettySize=auto;html=1;exitX=1;exitY=0.5;exitDx=0;exitDy=0;entryX=0;entryY=0.5;entryDx=0;entryDy=0;" parent="1" source="ZVUKp8MK0bkCZlVXY3z7-1" target="jxocmDw_oHp8jbZbiG_L-2" edge="1">
          <mxGeometry relative="1" as="geometry">
            <mxPoint x="310" y="90" as="targetPoint" />
          </mxGeometry>
        </mxCell>
        <mxCell id="ZVUKp8MK0bkCZlVXY3z7-1" value="Feedback&lt;div&gt;Controller&lt;/div&gt;" style="rounded=0;whiteSpace=wrap;html=1;" parent="1" vertex="1">
          <mxGeometry x="80" y="40" width="80" height="80" as="geometry" />
        </mxCell>
        <mxCell id="ZVUKp8MK0bkCZlVXY3z7-8" style="edgeStyle=orthogonalEdgeStyle;rounded=0;orthogonalLoop=1;jettySize=auto;html=1;exitX=1;exitY=0.5;exitDx=0;exitDy=0;entryX=0;entryY=0.5;entryDx=0;entryDy=0;" parent="1" source="ZVUKp8MK0bkCZlVXY3z7-2" target="ZVUKp8MK0bkCZlVXY3z7-9" edge="1">
          <mxGeometry relative="1" as="geometry">
            <mxPoint x="440" y="80" as="targetPoint" />
          </mxGeometry>
        </mxCell>
        <mxCell id="ZVUKp8MK0bkCZlVXY3z7-15" style="edgeStyle=orthogonalEdgeStyle;rounded=0;orthogonalLoop=1;jettySize=auto;html=1;exitX=1;exitY=0.5;exitDx=0;exitDy=0;entryX=1;entryY=0.5;entryDx=0;entryDy=0;" parent="1" source="ZVUKp8MK0bkCZlVXY3z7-2" target="ZVUKp8MK0bkCZlVXY3z7-14" edge="1">
          <mxGeometry relative="1" as="geometry">
            <Array as="points">
              <mxPoint x="560" y="80" />
              <mxPoint x="560" y="220" />
            </Array>
          </mxGeometry>
        </mxCell>
        <mxCell id="ZVUKp8MK0bkCZlVXY3z7-2" value="Vehicle&amp;nbsp;&lt;div&gt;Model&lt;/div&gt;&lt;div&gt;(Plant)&lt;/div&gt;" style="rounded=0;whiteSpace=wrap;html=1;" parent="1" vertex="1">
          <mxGeometry x="440" y="40" width="80" height="80" as="geometry" />
        </mxCell>
        <mxCell id="ZVUKp8MK0bkCZlVXY3z7-4" style="edgeStyle=orthogonalEdgeStyle;rounded=0;orthogonalLoop=1;jettySize=auto;html=1;exitX=1;exitY=0.5;exitDx=0;exitDy=0;entryX=0;entryY=0.5;entryDx=0;entryDy=0;" parent="1" source="ZVUKp8MK0bkCZlVXY3z7-3" target="ZVUKp8MK0bkCZlVXY3z7-1" edge="1">
          <mxGeometry relative="1" as="geometry" />
        </mxCell>
        <mxCell id="ZVUKp8MK0bkCZlVXY3z7-3" value="" style="ellipse;whiteSpace=wrap;html=1;aspect=fixed;" parent="1" vertex="1">
          <mxGeometry x="-80" y="60" width="40" height="40" as="geometry" />
        </mxCell>
        <mxCell id="ZVUKp8MK0bkCZlVXY3z7-6" style="edgeStyle=orthogonalEdgeStyle;rounded=0;orthogonalLoop=1;jettySize=auto;html=1;exitX=1;exitY=0.5;exitDx=0;exitDy=0;entryX=0;entryY=0.5;entryDx=0;entryDy=0;" parent="1" source="ZVUKp8MK0bkCZlVXY3z7-5" target="ZVUKp8MK0bkCZlVXY3z7-3" edge="1">
          <mxGeometry relative="1" as="geometry" />
        </mxCell>
        <mxCell id="jxocmDw_oHp8jbZbiG_L-8" style="edgeStyle=orthogonalEdgeStyle;rounded=0;orthogonalLoop=1;jettySize=auto;html=1;exitX=1;exitY=0.5;exitDx=0;exitDy=0;entryX=0;entryY=0.5;entryDx=0;entryDy=0;" edge="1" parent="1" source="ZVUKp8MK0bkCZlVXY3z7-5" target="jxocmDw_oHp8jbZbiG_L-6">
          <mxGeometry relative="1" as="geometry">
            <Array as="points">
              <mxPoint x="-130" y="80" />
              <mxPoint x="-130" y="-40" />
            </Array>
          </mxGeometry>
        </mxCell>
        <mxCell id="ZVUKp8MK0bkCZlVXY3z7-5" value="Reference Yaw Rate (rad/s)" style="text;html=1;align=center;verticalAlign=middle;whiteSpace=wrap;rounded=0;" parent="1" vertex="1">
          <mxGeometry x="-240" y="60" width="80" height="40" as="geometry" />
        </mxCell>
        <mxCell id="ZVUKp8MK0bkCZlVXY3z7-9" value="Actual Yaw Rate (rad/s)" style="text;html=1;align=center;verticalAlign=middle;whiteSpace=wrap;rounded=0;" parent="1" vertex="1">
          <mxGeometry x="600" y="60" width="80" height="40" as="geometry" />
        </mxCell>
        <mxCell id="ZVUKp8MK0bkCZlVXY3z7-11" value="Yaw Rate Error (rad/s)" style="text;html=1;align=center;verticalAlign=middle;whiteSpace=wrap;rounded=0;" parent="1" vertex="1">
          <mxGeometry x="-10" y="40" width="60" height="30" as="geometry" />
        </mxCell>
        <mxCell id="ZVUKp8MK0bkCZlVXY3z7-13" value="TV Yaw Moment (N-m)" style="text;html=1;align=center;verticalAlign=middle;whiteSpace=wrap;rounded=0;" parent="1" vertex="1">
          <mxGeometry x="190" y="40" width="80" height="30" as="geometry" />
        </mxCell>
        <mxCell id="ZVUKp8MK0bkCZlVXY3z7-16" style="edgeStyle=orthogonalEdgeStyle;rounded=0;orthogonalLoop=1;jettySize=auto;html=1;exitX=0;exitY=0.5;exitDx=0;exitDy=0;entryX=0.5;entryY=1;entryDx=0;entryDy=0;" parent="1" source="ZVUKp8MK0bkCZlVXY3z7-14" target="ZVUKp8MK0bkCZlVXY3z7-3" edge="1">
          <mxGeometry relative="1" as="geometry" />
        </mxCell>
        <mxCell id="ZVUKp8MK0bkCZlVXY3z7-14" value="IMU Sensor" style="rounded=0;whiteSpace=wrap;html=1;" parent="1" vertex="1">
          <mxGeometry x="160" y="200" width="120" height="40" as="geometry" />
        </mxCell>
        <mxCell id="ZVUKp8MK0bkCZlVXY3z7-17" value="+" style="text;html=1;align=center;verticalAlign=middle;resizable=0;points=[];autosize=1;strokeColor=none;fillColor=none;" parent="1" vertex="1">
          <mxGeometry x="-100" y="50" width="30" height="30" as="geometry" />
        </mxCell>
        <mxCell id="ZVUKp8MK0bkCZlVXY3z7-18" value="-" style="text;html=1;align=center;verticalAlign=middle;resizable=0;points=[];autosize=1;strokeColor=none;fillColor=none;" parent="1" vertex="1">
          <mxGeometry x="-60" y="100" width="30" height="30" as="geometry" />
        </mxCell>
        <mxCell id="ZVUKp8MK0bkCZlVXY3z7-21" value="Measured Yaw Rate (rad/s)" style="text;html=1;align=center;verticalAlign=middle;whiteSpace=wrap;rounded=0;" parent="1" vertex="1">
          <mxGeometry y="180" width="60" height="30" as="geometry" />
        </mxCell>
        <mxCell id="jxocmDw_oHp8jbZbiG_L-5" style="edgeStyle=orthogonalEdgeStyle;rounded=0;orthogonalLoop=1;jettySize=auto;html=1;exitX=1;exitY=0.5;exitDx=0;exitDy=0;entryX=0;entryY=0.5;entryDx=0;entryDy=0;" edge="1" parent="1" source="jxocmDw_oHp8jbZbiG_L-2" target="ZVUKp8MK0bkCZlVXY3z7-2">
          <mxGeometry relative="1" as="geometry" />
        </mxCell>
        <mxCell id="jxocmDw_oHp8jbZbiG_L-2" value="" style="ellipse;whiteSpace=wrap;html=1;aspect=fixed;" vertex="1" parent="1">
          <mxGeometry x="360" y="60" width="40" height="40" as="geometry" />
        </mxCell>
        <mxCell id="jxocmDw_oHp8jbZbiG_L-3" value="+" style="text;html=1;align=center;verticalAlign=middle;resizable=0;points=[];autosize=1;strokeColor=none;fillColor=none;" vertex="1" parent="1">
          <mxGeometry x="340" y="80" width="30" height="30" as="geometry" />
        </mxCell>
        <mxCell id="jxocmDw_oHp8jbZbiG_L-4" value="+" style="text;html=1;align=center;verticalAlign=middle;resizable=0;points=[];autosize=1;strokeColor=none;fillColor=none;" vertex="1" parent="1">
          <mxGeometry x="380" y="40" width="30" height="30" as="geometry" />
        </mxCell>
        <mxCell id="jxocmDw_oHp8jbZbiG_L-7" style="edgeStyle=orthogonalEdgeStyle;rounded=0;orthogonalLoop=1;jettySize=auto;html=1;exitX=1;exitY=0.5;exitDx=0;exitDy=0;entryX=0.5;entryY=0;entryDx=0;entryDy=0;" edge="1" parent="1" source="jxocmDw_oHp8jbZbiG_L-6" target="jxocmDw_oHp8jbZbiG_L-2">
          <mxGeometry relative="1" as="geometry" />
        </mxCell>
        <mxCell id="jxocmDw_oHp8jbZbiG_L-6" value="Feedforward Controller" style="rounded=0;whiteSpace=wrap;html=1;" vertex="1" parent="1">
          <mxGeometry x="-40" y="-60" width="160" height="40" as="geometry" />
        </mxCell>
        <mxCell id="jxocmDw_oHp8jbZbiG_L-9" value="Feedforward Yaw Moment (N-m)" style="text;html=1;align=center;verticalAlign=middle;whiteSpace=wrap;rounded=0;" vertex="1" parent="1">
          <mxGeometry x="150" y="-80" width="110" height="30" as="geometry" />
        </mxCell>
        <mxCell id="jxocmDw_oHp8jbZbiG_L-11" value="Yaw Rate Controller High Level Diagram" style="text;html=1;align=left;verticalAlign=middle;whiteSpace=wrap;rounded=0;fontStyle=1;fontSize=16;" vertex="1" parent="1">
          <mxGeometry x="-240" y="-160" width="310" height="40" as="geometry" />
        </mxCell>
      </root>
    </mxGraphModel>
  </diagram>
</mxfile>
